<?xml version="1.0" encoding="utf-8"?>
<svg viewBox="30.913 22.817 442.59 184.247" xmlns="http://www.w3.org/2000/svg">
  <defs>
    <radialGradient gradientUnits="userSpaceOnUse" cx="325.657" cy="231.213" r="50" id="gradient-1" gradientTransform="matrix(1, 0, 0, 1, 1.472018, -114.083139)">
      <stop offset="0" style="stop-color: rgba(57, 50, 151, 1)"/>
      <stop offset="1" style="stop-color: rgba(28, 25, 74, 1)"/>
    </radialGradient>
  </defs>
  <ellipse style="fill-rule: nonzero; paint-order: fill; stroke: rgba(0, 0, 0, 0); fill: url(#gradient-1);" cx="327.129" cy="117.13" rx="50" ry="50"/>
  <ellipse style="fill: rgb(255, 255, 255); stroke: rgba(255, 255, 255, 0);" cx="328.472" cy="116.917" rx="30" ry="30"/>
  <path d="M 154.118 192.018 L 154.118 176.131 L 156.338 176.131 L 156.338 192.018 Z M 151.278 187.622 Q 149.406 187.622 148.389 186.419 Q 147.372 185.217 147.372 183.03 L 147.372 180.538 Q 147.372 178.34 148.367 177.137 Q 149.363 175.935 151.169 175.935 Q 152.17 175.935 153.003 176.457 Q 153.835 176.98 154.347 177.926 L 154.118 180.233 Q 154.118 179.515 153.857 179.004 Q 153.596 178.492 153.101 178.226 Q 152.606 177.959 151.898 177.959 Q 150.799 177.959 150.195 178.644 Q 149.591 179.33 149.591 180.571 L 149.591 183.03 Q 149.591 184.259 150.195 184.929 Q 150.799 185.598 151.898 185.598 Q 152.606 185.598 153.101 185.32 Q 153.596 185.043 153.857 184.521 Q 154.118 183.998 154.118 183.269 L 154.271 185.652 Q 153.966 186.414 153.221 187.018 Q 152.475 187.622 151.278 187.622 Z M 158.186 192.018 L 158.186 189.907 L 159.427 189.907 Q 159.743 189.907 159.906 189.679 Q 160.069 189.45 160.069 189.047 L 160.069 176.131 L 162.289 176.131 L 162.289 189.026 Q 162.289 190.451 161.598 191.235 Q 160.907 192.018 159.645 192.018 Z M 160.047 173.824 L 160.047 171.604 L 162.311 171.604 L 162.311 173.824 Z M 169.678 187.589 Q 168.176 187.589 166.952 187.149 Q 165.728 186.708 164.759 185.826 L 164.759 185.826 L 166.076 184.205 L 166.076 184.205 Q 167.001 184.901 167.899 185.25 Q 168.796 185.598 169.678 185.598 Q 170.994 185.598 171.653 185.19 Q 172.311 184.782 172.311 183.966 Q 172.311 183.334 171.87 183.073 Q 171.43 182.812 170.717 182.731 Q 170.004 182.649 169.188 182.595 Q 168.503 182.54 167.828 182.426 Q 167.153 182.312 166.598 182.012 Q 166.043 181.713 165.711 181.125 Q 165.38 180.538 165.38 179.548 Q 165.38 177.752 166.479 176.86 Q 167.578 175.968 169.754 175.968 Q 171.082 175.968 172.224 176.327 Q 173.367 176.686 174.368 177.426 L 174.368 177.426 L 173.029 179.047 L 173.029 179.047 Q 172.181 178.503 171.359 178.231 Q 170.537 177.959 169.754 177.959 Q 168.622 177.959 168.056 178.345 Q 167.491 178.732 167.491 179.504 Q 167.491 180.016 167.882 180.239 Q 168.274 180.462 168.916 180.527 Q 169.558 180.592 170.298 180.647 Q 171.005 180.69 171.729 180.804 Q 172.453 180.919 173.062 181.245 Q 173.671 181.572 174.041 182.214 Q 174.411 182.856 174.411 183.966 Q 174.411 185.783 173.231 186.686 Q 172.05 187.589 169.678 187.589 Z M 189.21 187.426 L 189.21 176.131 L 191.43 176.131 L 191.43 187.426 Z M 196.066 187.426 L 196.066 180.581 Q 196.066 179.384 195.451 178.732 Q 194.836 178.079 193.705 178.079 Q 192.616 178.079 192.023 178.655 Q 191.43 179.232 191.43 180.277 L 191.202 178.1 Q 191.724 177.078 192.567 176.523 Q 193.411 175.968 194.434 175.968 Q 196.273 175.968 197.279 177.17 Q 198.286 178.372 198.286 180.571 L 198.286 187.426 Z" transform="matrix(8.528735, 0, 0, 7.686364, -1222.081909, -1281.925415)" style="white-space: pre;"/>
  <ellipse style="fill: rgb(178, 178, 178); stroke: rgb(255, 255, 255);" cx="336.472" cy="100.917" rx="10" ry="10"/>
  <ellipse style="fill: rgb(255, 255, 255); stroke: rgba(0, 0, 0, 0);" cx="354.472" cy="82.917" rx="10" ry="10"/>
</svg>